HIERARCHY
ROOT Hips
{
 OFFSET 0.000000 0.000000 0.000000
 CHANNELS 6 Xposition Yposition Zposition Yrotation Xrotation Zrotation
 JOINT Chest
 {
  OFFSET 0.000000 9.588913 -0.003946
  CHANNELS 3 Yrotation Xrotation Zrotation
  JOINT Chest2
  {
   OFFSET 0.000000 9.541882 0.008053
   CHANNELS 3 Yrotation Xrotation Zrotation
   JOINT Chest3
   {
    OFFSET 0.000000 9.501360 0.000000
    CHANNELS 3 Yrotation Xrotation Zrotation
    JOINT Chest4
    {
     OFFSET 0.000000 9.491660 0.000000
     CHANNELS 3 Yrotation Xrotation Zrotation
     JOINT Neck
     {
      OFFSET 0.000000 14.331917 0.000000
      CHANNELS 3 Yrotation Xrotation Zrotation
      JOINT Head
      {
       OFFSET 0.000000 8.884799 0.017034
       CHANNELS 3 Yrotation Xrotation Zrotation
       End Site
       {
        OFFSET 0.000000 16.896195 0.008993
       }
      }
     }
     JOINT RightCollar
     {
      OFFSET -2.923010 9.499495 0.000000
      CHANNELS 3 Yrotation Xrotation Zrotation
      JOINT RightShoulder
      {
       OFFSET -13.795216 0.000000 0.000000
       CHANNELS 3 Yrotation Xrotation Zrotation
       JOINT RightElbow
       {
        OFFSET -30.272209 0.000000 0.000000
        CHANNELS 3 Yrotation Xrotation Zrotation
        JOINT RightWrist
        {
         OFFSET -24.478199 0.000000 0.000000
         CHANNELS 3 Yrotation Xrotation Zrotation
         End Site
         {
          OFFSET -18.090752 0.000000 0.000000
         }
        }
       }
      }
     }
     JOINT LeftCollar
     {
      OFFSET 2.923010 9.499495 0.000000
      CHANNELS 3 Yrotation Xrotation Zrotation
      JOINT LeftShoulder
      {
       OFFSET 13.795216 0.000000 0.000000
       CHANNELS 3 Yrotation Xrotation Zrotation
       JOINT LeftElbow
       {
        OFFSET 30.272209 0.000000 0.000000
        CHANNELS 3 Yrotation Xrotation Zrotation
        JOINT LeftWrist
        {
         OFFSET 24.478199 0.000000 0.000000
         CHANNELS 3 Yrotation Xrotation Zrotation
         End Site
         {
          OFFSET 18.090752 0.000000 0.000000
         }
        }
       }
      }
     }
    }
   }
  }
 }
 JOINT RightHip
 {
  OFFSET -7.826875 0.019532 0.001973
  CHANNELS 3 Yrotation Xrotation Zrotation
  JOINT RightKnee
  {
   OFFSET 0.000000 -40.546152 -0.001885
   CHANNELS 3 Yrotation Xrotation Zrotation
   JOINT RightAnkle
   {
    OFFSET 0.000000 -39.417092 -0.003189
    CHANNELS 3 Yrotation Xrotation Zrotation
    JOINT RightToe
    {
     OFFSET 0.000000 -7.579396 17.243563
     CHANNELS 3 Yrotation Xrotation Zrotation
     End Site
     {
      OFFSET 0.000000 -1.500329 6.694466
     }
    }
   }
  }
 }
 JOINT LeftHip
 {
  OFFSET 7.826875 0.019532 0.001973
  CHANNELS 3 Yrotation Xrotation Zrotation
  JOINT LeftKnee
  {
   OFFSET 0.000000 -40.546152 -0.001885
   CHANNELS 3 Yrotation Xrotation Zrotation
   JOINT LeftAnkle
   {
    OFFSET 0.000000 -39.417092 -0.003189
    CHANNELS 3 Yrotation Xrotation Zrotation
    JOINT LeftToe
    {
     OFFSET 0.000000 -7.579396 17.243563
     CHANNELS 3 Yrotation Xrotation Zrotation
     End Site
     {
      OFFSET 0.000000 -1.500329 6.694466
     }
    }
   }
  }
 }
}
MOTION
Frames: 17
Frame Time: 0.008333
0.000000 87.345680 0.000000 0.000000 -5.767889 0.000000 0.000000 11.653876 0.000000 0.000000 -5.885988 0.000000 0.000000 -0.000000 0.000000 0.000000 -0.000000 0.000000 0.000000 12.528808 0.000000 0.000000 0.711711 0.000000 0.000000 -0.000000 0.000000 0.000000 -0.000000 0.000000 2.309063 -0.000000 0.000000 -2.309063 -0.000000 -0.000000 0.000000 -0.000000 0.000000 0.000000 0.000000 0.000000 -2.309063 0.000000 0.000000 2.309063 -0.000000 0.000000 0.000000 8.520374 0.000000 0.000000 1.905768 0.000000 -0.000000 -4.658254 0.000000 0.000000 -0.000000 0.000000 0.000000 8.520374 0.000000 0.000000 1.905768 0.000000 -0.000000 -4.658254 0.000000 0.000000 -0.000000 0.000000
6.412144 89.086152 18.840925 -48.758361 -9.482013 -0.530419 3.244298 2.705629 0.480930 1.838282 1.540635 0.386933 2.299683 1.923789 0.491421 1.838282 1.540635 0.386933 3.486742 30.065139 -1.366577 4.192059 8.006380 -2.308672 -8.160800 2.590086 -0.725009 -2.784485 1.066339 89.676804 1.694143 0.474615 -0.337106 0.924353 -5.264704 -2.115453 0.845578 2.159758 0.585243 4.558470 1.755641 -87.100703 -6.198187 2.387596 -2.541729 1.546593 7.338865 0.262222 -4.972642 7.290982 -6.180476 1.233087 5.709122 -0.925254 2.219083 -3.780497 3.344367 0.007540 -0.279008 0.000228 13.373620 11.912225 1.639130 7.307343 -0.450463 -0.166004 3.200798 -4.362728 1.489452 0.017077 0.297804 0.011951
6.418283 89.084952 18.852359 -48.781915 -9.484156 -0.540382 3.248365 2.708175 0.481860 1.840549 1.542080 0.389317 2.302528 1.925580 0.494419 1.840549 1.542080 0.389317 3.489136 30.062979 -1.363236 4.193939 8.003493 -2.305483 -8.156389 2.596983 -0.725590 -2.779213 1.056190 89.670780 1.696389 0.483141 -0.341224 0.921389 -5.260491 -2.110712 0.858053 2.173677 0.610924 4.630256 1.843399 -87.048497 -6.047977 2.386203 -2.398777 1.565061 7.347740 0.275443 -4.964061 7.293995 -6.179918 1.235429 5.703761 -0.925297 2.227964 -3.773323 3.358575 0.005624 -0.280100 -0.002504 13.403156 11.918927 1.643761 7.313856 -0.454782 -0.164733 3.198848 -4.372061 1.494558 0.014729 0.300033 0.012413
6.425671 89.083533 18.865979 -48.799512 -9.484956 -0.550989 3.247201 2.710387 0.482278 1.839856 1.543385 0.391574 2.301674 1.927201 0.497243 1.839856 1.543385 0.391574 3.494121 30.059372 -1.361893 4.199162 7.998902 -2.305110 -8.141831 2.604992 -0.726508 -2.774650 1.042386 89.666332 1.697118 0.494028 -0.346719 0.918545 -5.256293 -2.108797 0.879103 2.189879 0.637397 4.703482 1.930069 -86.993131 -5.900630 2.387703 -2.258492 1.579433 7.354896 0.285750 -4.960615 7.298830 -6.179145 1.238778 5.694289 -0.929216 2.232666 -3.765783 3.376131 0.004923 -0.280694 -0.004349 13.419367 11.926279 1.642512 7.321639 -0.462500 -0.159549 3.200881 -4.380655 1.499530 0.012160 0.302826 0.012508
6.434056 89.081920 18.881102 -48.812725 -9.483144 -0.561603 3.241691 2.712395 0.481758 1.836261 1.544487 0.393246 2.297188 1.928574 0.499325 1.836261 1.544487 0.393246 3.502822 30.054070 -1.363105 4.209113 7.992365 -2.308429 -8.117320 2.612729 -0.724859 -2.769891 1.026470 89.660924 1.698795 0.509515 -0.352339 0.916110 -5.253305 -2.112115 0.909696 2.205654 0.664095 4.777055 2.014715 -86.934397 -5.756263 2.391196 -2.119675 1.594865 7.364181 0.293486 -4.960889 7.303190 -6.178860 1.244613 5.681978 -0.935307 2.234083 -3.758476 3.394224 0.005068 -0.281036 -0.004199 13.426867 11.932638 1.636102 7.331181 -0.473038 -0.150782 3.202579 -4.388290 1.503730 0.010260 0.305957 0.012613
6.442961 89.080184 18.897098 -48.824655 -9.479148 -0.571888 3.234107 2.714282 0.481060 1.831206 1.545482 0.394377 2.290874 1.929818 0.500722 1.831206 1.545482 0.394377 3.513435 30.047293 -1.366952 4.221792 7.984076 -2.315118 -8.086518 2.619806 -0.722434 -2.763581 1.009151 89.655238 1.702135 0.527960 -0.357240 0.915380 -5.248558 -2.121011 0.946993 2.220343 0.689310 4.848031 2.099079 -86.871104 -5.614392 2.393766 -1.983022 1.610289 7.378161 0.302078 -4.962831 7.306075 -6.179487 1.252706 5.668610 -0.941853 2.234570 -3.751556 3.411874 0.005947 -0.281419 -0.002789 13.431942 11.937112 1.628481 7.336485 -0.483223 -0.142962 3.206260 -4.396329 1.509274 0.009034 0.309184 0.012402
6.451591 89.078461 18.913527 -48.839268 -9.475938 -0.582701 3.227883 2.717038 0.481710 1.826992 1.546961 0.395655 2.285615 1.931665 0.502310 1.826992 1.546961 0.395655 3.520965 30.039331 -1.372529 4.231395 7.974095 -2.323030 -8.057829 2.624615 -0.722692 -2.753696 0.991443 89.650672 1.704172 0.548645 -0.360935 0.916784 -5.239141 -2.133298 0.982351 2.232931 0.711757 4.919044 2.184841 -86.805391 -5.473254 2.396900 -1.845173 1.618676 7.393761 0.310394 -4.961221 7.309622 -6.179734 1.261216 5.655757 -0.947262 2.234716 -3.744866 3.428358 0.007724 -0.282210 -0.000942 13.440108 11.941464 1.624862 7.334622 -0.490142 -0.140068 3.213544 -4.406751 1.518387 0.008357 0.312522 0.011187
6.459462 89.076852 18.930086 -48.859235 -9.475758 -0.594727 3.225693 2.721612 0.483725 1.825232 1.549479 0.397336 2.283424 1.934807 0.504416 1.825232 1.549479 0.397336 3.522972 30.030423 -1.377231 4.234590 7.962492 -2.328703 -8.037854 2.626300 -0.725461 -2.740638 0.973532 89.647611 1.704430 0.573254 -0.365602 0.916338 -5.223674 -2.145963 1.010430 2.240121 0.733381 4.988510 2.275332 -86.738053 -5.334630 2.399242 -1.705519 1.623255 7.407841 0.317666 -4.952213 7.314264 -6.177929 1.266851 5.647057 -0.951392 2.235782 -3.739492 3.442005 0.009815 -0.283777 0.001881 13.454399 11.947897 1.626781 7.329286 -0.493943 -0.141288 3.221357 -4.419900 1.530642 0.008356 0.315952 0.008924
6.466974 89.075352 18.946747 -48.883596 -9.477797 -0.605974 3.227874 2.727552 0.485541 1.826161 1.552871 0.398733 2.284597 1.939038 0.506183 1.826161 1.552871 0.398733 3.520698 30.021108 -1.378928 4.232289 7.949970 -2.330045 -8.026278 2.625750 -0.728846 -2.729486 0.955777 89.645071 1.702972 0.606156 -0.371090 0.914117 -5.209697 -2.157577 1.030014 2.241412 0.756883 5.052078 2.369809 -86.669310 -5.197776 2.396422 -1.566591 1.629806 7.419855 0.324214 -4.938221 7.317826 -6.176611 1.268748 5.644469 -0.954111 2.239511 -3.736842 3.453186 0.011678 -0.285644 0.005143 13.473191 11.956061 1.629676 7.324170 -0.495747 -0.143130 3.227459 -4.434083 1.543794 0.008797 0.318682 0.006570
6.474649 89.073900 18.963324 -48.907963 -9.479724 -0.616371 3.232524 2.733096 0.485640 1.828686 1.556063 0.399486 2.287761 1.943022 0.507152 1.828686 1.556063 0.399486 3.515827 30.012792 -1.377110 4.226282 7.938491 -2.326876 -8.020563 2.625729 -0.729542 -2.722118 0.939899 89.639344 1.699602 0.647099 -0.374265 0.913635 -5.202323 -2.169514 1.043351 2.242048 0.784571 5.109605 2.461714 -86.601067 -5.058040 2.389885 -1.427659 1.637885 7.430075 0.328905 -4.924492 7.318834 -6.177132 1.270098 5.646122 -0.955715 2.245753 -3.736015 3.465270 0.012918 -0.287884 0.006847 13.490798 11.963581 1.629910 7.318216 -0.496800 -0.142265 3.234652 -4.447886 1.555918 0.009456 0.321006 0.004770
6.482757 89.072429 18.979489 -48.928949 -9.479350 -0.627892 3.236917 2.736799 0.484628 1.831120 1.558105 0.400208 2.290809 1.945567 0.508075 1.831120 1.558105 0.400208 3.509124 30.006538 -1.373254 4.217786 7.929579 -2.321024 -8.017918 2.626930 -0.728709 -2.716399 0.926854 89.631016 1.695636 0.688739 -0.375571 0.912852 -5.194323 -2.181224 1.053924 2.246815 0.815472 5.165508 2.547501 -86.533631 -4.916129 2.384101 -1.290513 1.650681 7.439949 0.334768 -4.912480 7.316154 -6.176971 1.271022 5.650645 -0.956796 2.251644 -3.735800 3.477565 0.013485 -0.290797 0.007929 13.500208 11.967044 1.627370 7.309613 -0.495887 -0.137961 3.247873 -4.462817 1.566421 0.010122 0.324343 0.003643
6.491629 89.070885 18.995393 -48.946399 -9.475643 -0.639684 3.239779 2.738309 0.483244 1.832730 1.558933 0.400926 2.292825 1.946597 0.508983 1.832730 1.558933 0.400926 3.501289 30.002420 -1.368650 4.207881 7.923427 -2.314088 -8.015759 2.628415 -0.729039 -2.710363 0.915634 89.623712 1.690983 0.726823 -0.376313 0.910917 -5.184164 -2.190767 1.064528 2.255170 0.845564 5.223498 2.627515 -86.465540 -4.774573 2.382471 -1.155528 1.670044 7.453166 0.341289 -4.901093 7.308401 -6.175880 1.271224 5.658909 -0.958414 2.254404 -3.736832 3.488591 0.013768 -0.293964 0.009995 13.497731 11.965608 1.621766 7.299423 -0.492324 -0.133429 3.268205 -4.479766 1.577543 0.009891 0.328710 0.002598
6.501550 89.069222 19.011381 -48.958153 -9.468061 -0.650322 3.241185 2.738108 0.481385 1.833571 1.558864 0.401162 2.293878 1.946509 0.509282 1.833571 1.558864 0.401162 3.492297 29.999852 -1.363430 4.196562 7.919259 -2.306206 -8.014747 2.630177 -0.730782 -2.701686 0.905441 89.619068 1.685953 0.760432 -0.376262 0.910805 -5.181031 -2.198475 1.075188 2.265080 0.871742 5.279507 2.700381 -86.395554 -4.634715 2.384295 -1.020851 1.695584 7.471606 0.342777 -4.891987 7.294690 -6.175921 1.270941 5.671948 -0.961143 2.254221 -3.739961 3.500941 0.013851 -0.297128 0.011532 13.482308 11.959654 1.612009 7.288910 -0.487231 -0.130204 3.291946 -4.497817 1.590667 0.008841 0.333496 0.001276
6.512408 89.067423 19.027696 -48.965172 -9.457128 -0.659606 3.242210 2.736983 0.479523 1.834156 1.558105 0.401038 2.294608 1.945560 0.509125 1.834156 1.558105 0.401038 3.482148 29.997927 -1.358112 4.183935 7.915880 -2.297953 -8.014918 2.632540 -0.735833 -2.691190 0.897522 89.617284 1.682915 0.787568 -0.374747 0.911573 -5.184756 -2.205640 1.083595 2.277096 0.891958 5.331036 2.764783 -86.322477 -4.498394 2.388829 -0.889776 1.729750 7.494667 0.340444 -4.883920 7.275645 -6.178763 1.268698 5.689634 -0.962969 2.253848 -3.745181 3.516126 0.013868 -0.300114 0.010945 13.457539 11.948446 1.597389 7.281092 -0.478069 -0.125076 3.313774 -4.518132 1.602995 0.008289 0.338499 0.000535
6.523693 89.065528 19.044626 -48.975337 -9.445241 -0.667371 3.244544 2.735857 0.477657 1.835557 1.557265 0.400567 2.296356 1.944510 0.508539 1.835557 1.557265 0.400567 3.472179 29.995061 -1.353026 4.171550 7.911265 -2.289997 -8.013330 2.633474 -0.744060 -2.681109 0.893811 89.617596 1.681765 0.809652 -0.371008 0.911701 -5.189967 -2.213760 1.091559 2.290842 0.906448 5.379990 2.821282 -86.244603 -4.365235 2.397888 -0.763124 1.769492 7.522251 0.336474 -4.872159 7.254841 -6.184195 1.267214 5.708314 -0.963110 2.253931 -3.750950 3.533298 0.013806 -0.302310 0.008960 13.432472 11.934677 1.580326 7.279156 -0.464110 -0.119034 3.331607 -4.541815 1.614301 0.008195 0.343395 0.000569
6.534789 89.063599 19.062479 -48.989364 -9.435237 -0.674968 3.248056 2.735247 0.475271 1.837864 1.556864 0.399932 2.299237 1.944009 0.507753 1.837864 1.556864 0.399932 3.462552 29.990994 -1.347776 4.159494 7.905063 -2.281934 -8.010144 2.633556 -0.752802 -2.672301 0.892122 89.619581 1.679249 0.829570 -0.367479 0.913227 -5.196972 -2.220839 1.099007 2.304576 0.918868 5.425682 2.871695 -86.164528 -4.233426 2.407735 -0.636405 1.808147 7.553721 0.329689 -4.857966 7.237167 -6.189742 1.268859 5.724556 -0.963708 2.253130 -3.756042 3.551197 0.013307 -0.303871 0.007411 13.408387 11.923203 1.564117 7.281703 -0.449037 -0.115188 3.348459 -4.567903 1.627441 0.007890 0.348229 0.000233
6.545563 89.061612 19.081245 -49.001793 -9.426445 -0.684378 3.251339 2.734695 0.471821 1.840097 1.556568 0.399415 2.302026 1.943640 0.507114 1.840097 1.556568 0.399415 3.454185 29.986643 -1.342313 4.148796 7.898546 -2.273919 -8.004545 2.636006 -0.759203 -2.665755 0.889225 89.621962 1.676715 0.843228 -0.364705 0.915390 -5.202141 -2.225937 1.103222 2.316566 0.932989 5.469240 2.920023 -86.086414 -4.103093 2.415435 -0.508888 1.842564 7.586723 0.323272 -4.844437 7.222920 -6.193581 1.271714 5.738291 -0.965933 2.252868 -3.760534 3.568969 0.012584 -0.305762 0.007380 13.380778 11.912978 1.549373 7.285585 -0.433449 -0.112575 3.366557 -4.596080 1.642700 0.007530 0.353508 -0.000952
